<?xml version="1.0" standalone="no"?>
<!DOCTYPE svg PUBLIC "-//W3C//DTD SVG 20010904//EN"
 "http://www.w3.org/TR/2001/REC-SVG-20010904/DTD/svg10.dtd">
<svg version="1.0" xmlns="http://www.w3.org/2000/svg"
 width="260.000000pt" height="260.000000pt" viewBox="0 0 260.000000 260.000000"
 preserveAspectRatio="xMidYMid meet">

<g transform="translate(0.000000,260.000000) scale(0.100000,-0.100000)"
fill="#000000" stroke="none">
<path d="M303 1973 c-13 -2 -23 -7 -22 -11 0 -4 119 -108 265 -232 146 -124
368 -312 492 -418 218 -186 228 -193 266 -190 35 3 84 42 527 418 268 228 488
418 488 421 1 4 -13 9 -30 13 -35 7 -1951 6 -1986 -1z"/>
<path d="M190 1865 c-6 -16 -10 -237 -10 -569 l0 -542 23 -44 c13 -26 36 -53
57 -65 34 -20 49 -20 1040 -20 991 0 1006 0 1040 20 21 12 44 39 58 65 l22 45
-2 557 c-2 355 -7 560 -13 566 -6 6 -188 -143 -500 -410 -269 -231 -508 -428
-530 -439 -50 -23 -99 -24 -147 -1 -21 9 -122 89 -225 177 -850 726 -802 688
-813 660z"/>
</g>
</svg>
